<svg width="24" height="23" viewBox="0 0 24 23" fill="none" xmlns="http://www.w3.org/2000/svg">
<g id="Instagram">
<rect x="0.983887" y="0.361328" width="22.4649" height="22.4649" rx="11.2324" fill="black"/>
<path id="Vector" d="M12.2189 6.06833C14.0197 6.06833 14.2311 6.07636 14.9428 6.10847C15.6011 6.1379 15.957 6.24761 16.1951 6.34126C16.5109 6.46435 16.7356 6.60884 16.9711 6.84431C17.2066 7.07978 17.3537 7.30455 17.4742 7.6203C17.5651 7.85844 17.6775 8.21432 17.7069 8.87257C17.7391 9.58434 17.7471 9.79572 17.7471 11.5965C17.7471 13.3974 17.7391 13.6087 17.7069 14.3205C17.6775 14.9788 17.5678 15.3346 17.4742 15.5728C17.3511 15.8885 17.2066 16.1133 16.9711 16.3488C16.7356 16.5842 16.5109 16.7314 16.1951 16.8518C15.957 16.9428 15.6011 17.0552 14.9428 17.0846C14.2311 17.1167 14.0197 17.1248 12.2189 17.1248C10.4181 17.1248 10.2067 17.1167 9.4949 17.0846C8.83665 17.0552 8.48077 16.9455 8.24262 16.8518C7.92688 16.7287 7.70211 16.5842 7.46664 16.3488C7.23117 16.1133 7.084 15.8885 6.96359 15.5728C6.87261 15.3346 6.76023 14.9788 6.73079 14.3205C6.69868 13.6087 6.69066 13.3974 6.69066 11.5965C6.69066 9.79572 6.69868 9.58434 6.73079 8.87257C6.76023 8.21432 6.86993 7.85844 6.96359 7.6203C7.08667 7.30455 7.23117 7.07978 7.46664 6.84431C7.70211 6.60884 7.92688 6.46167 8.24262 6.34126C8.48077 6.25029 8.83665 6.1379 9.4949 6.10847C10.2067 6.07368 10.4207 6.06833 12.2189 6.06833ZM12.2189 4.85352C10.3886 4.85352 10.1585 4.86154 9.43871 4.89365C8.72159 4.92576 8.23192 5.04082 7.80379 5.20672C7.35961 5.37797 6.98499 5.61077 6.61038 5.98538C6.23577 6.35999 6.00565 6.73728 5.83172 7.17879C5.66582 7.60692 5.55076 8.09659 5.51865 8.81638C5.48654 9.5335 5.47852 9.76362 5.47852 11.5939C5.47852 13.4241 5.48654 13.6542 5.51865 14.374C5.55076 15.0911 5.66582 15.5808 5.83172 16.0116C6.00297 16.4558 6.23577 16.8304 6.61038 17.205C6.98499 17.5796 7.36228 17.8098 7.80379 17.9837C8.23192 18.1496 8.72159 18.2646 9.44138 18.2968C10.1612 18.3289 10.3886 18.3369 12.2215 18.3369C14.0545 18.3369 14.2819 18.3289 15.0017 18.2968C15.7188 18.2646 16.2085 18.1496 16.6393 17.9837C17.0835 17.8124 17.4581 17.5796 17.8327 17.205C18.2073 16.8304 18.4374 16.4531 18.6114 16.0116C18.7773 15.5835 18.8923 15.0938 18.9244 14.374C18.9565 13.6542 18.9646 13.4268 18.9646 11.5939C18.9646 9.76094 18.9565 9.5335 18.9244 8.81371C18.8923 8.09659 18.7773 7.60692 18.6114 7.17611C18.4401 6.73193 18.2073 6.35732 17.8327 5.9827C17.4581 5.60809 17.0808 5.37797 16.6393 5.20405C16.2112 5.03815 15.7215 4.92309 15.0017 4.89098C14.2792 4.86154 14.0491 4.85352 12.2189 4.85352Z" fill="white"/>
<path id="Vector_2" d="M12.2183 8.13477C10.3078 8.13477 8.75586 9.68406 8.75586 11.5973C8.75586 13.5105 10.3051 15.0597 12.2183 15.0597C14.1315 15.0597 15.6808 13.5105 15.6808 11.5973C15.6808 9.68406 14.1315 8.13477 12.2183 8.13477ZM12.2183 13.8423C10.9768 13.8423 9.97067 12.8362 9.97067 11.5946C9.97067 10.353 10.9768 9.3469 12.2183 9.3469C13.4599 9.3469 14.466 10.353 14.466 11.5946C14.466 12.8362 13.4599 13.8423 12.2183 13.8423Z" fill="white"/>
<path id="Vector_3" d="M15.8164 8.80369C16.2627 8.80369 16.6245 8.44189 16.6245 7.99559C16.6245 7.5493 16.2627 7.1875 15.8164 7.1875C15.3701 7.1875 15.0083 7.5493 15.0083 7.99559C15.0083 8.44189 15.3701 8.80369 15.8164 8.80369Z" fill="white"/>
</g>
</svg>
