<svg width="23" height="23" viewBox="0 0 23 23" fill="none" xmlns="http://www.w3.org/2000/svg">
<g id="LinkedIn">
<rect x="0.419434" y="0.361328" width="22.4649" height="22.4649" rx="11.2324" fill="#0A66C2"/>
<path id="Vector" d="M16.9177 5.41602H6.38621C6.14431 5.41602 5.91232 5.51211 5.74127 5.68316C5.57022 5.85421 5.47412 6.0862 5.47412 6.3281V16.8596C5.47412 17.1015 5.57022 17.3335 5.74127 17.5045C5.91232 17.6756 6.14431 17.7717 6.38621 17.7717H16.9177C17.1596 17.7717 17.3916 17.6756 17.5626 17.5045C17.7337 17.3335 17.8298 17.1015 17.8298 16.8596V6.3281C17.8298 6.0862 17.7337 5.85421 17.5626 5.68316C17.3916 5.51211 17.1596 5.41602 16.9177 5.41602ZM9.1568 15.9415H7.29916V10.0408H9.1568V15.9415ZM8.22669 9.22311C8.01597 9.22192 7.81033 9.15834 7.63571 9.04039C7.46109 8.92244 7.32533 8.75541 7.24555 8.56037C7.16577 8.36534 7.14556 8.15104 7.18746 7.94453C7.22935 7.73802 7.33149 7.54854 7.48097 7.40002C7.63045 7.2515 7.82057 7.15058 8.02735 7.11001C8.23413 7.06944 8.44829 7.09103 8.64281 7.17206C8.83733 7.25309 9.00349 7.38992 9.12031 7.56529C9.23714 7.74066 9.2994 7.94671 9.29923 8.15743C9.30122 8.29851 9.27478 8.43854 9.2215 8.56919C9.16822 8.69983 9.08918 8.81841 8.98909 8.91785C8.889 9.0173 8.76992 9.09558 8.63894 9.14802C8.50795 9.20046 8.36775 9.226 8.22669 9.22311ZM16.0039 15.9467H14.1471V12.723C14.1471 11.7723 13.743 11.4789 13.2213 11.4789C12.6704 11.4789 12.1299 11.8942 12.1299 12.747V15.9467H10.2722V10.0451H12.0587V10.8628H12.0827C12.262 10.4999 12.8901 9.8795 13.8485 9.8795C14.885 9.8795 16.0048 10.4947 16.0048 12.2966L16.0039 15.9467Z" fill="white"/>
</g>
</svg>
