<svg width="23" height="24" viewBox="0 0 23 24" fill="none" xmlns="http://www.w3.org/2000/svg">
<g id="Twitter">
<rect x="0.101074" y="0.662109" width="22.4649" height="22.4649" rx="11.2324" fill="#1D9BF0"/>
<path id="Vector" d="M9.27733 17.8207C14.2589 17.8207 16.9828 13.6928 16.9828 10.1153C16.9828 9.99733 16.9828 9.87939 16.9772 9.76707C17.5051 9.38517 17.9656 8.90779 18.3307 8.36301C17.8477 8.57643 17.3254 8.72245 16.775 8.78985C17.3366 8.45287 17.7634 7.92495 17.9656 7.29032C17.4433 7.59921 16.8648 7.82386 16.2471 7.94741C15.7528 7.41949 15.0508 7.09375 14.2701 7.09375C12.7762 7.09375 11.5631 8.30685 11.5631 9.80077C11.5631 10.0142 11.5856 10.222 11.6361 10.4185C9.38404 10.3062 7.39029 9.22791 6.05363 7.58798C5.82336 7.98673 5.68857 8.45287 5.68857 8.9471C5.68857 9.88501 6.16595 10.7162 6.89606 11.1992C6.45238 11.188 6.03678 11.0644 5.67172 10.8622C5.67172 10.8735 5.67172 10.8847 5.67172 10.8959C5.67172 12.2101 6.60402 13.2997 7.8452 13.5524C7.62055 13.6142 7.37905 13.6479 7.13194 13.6479C6.95784 13.6479 6.78935 13.631 6.62086 13.5973C6.96345 14.6756 7.96314 15.4563 9.14816 15.4788C8.22149 16.2032 7.05331 16.6357 5.78405 16.6357C5.56502 16.6357 5.3516 16.6245 5.13818 16.5964C6.3232 17.3714 7.74972 17.8207 9.27733 17.8207Z" fill="white"/>
</g>
</svg>
